<svg width="30" height="26" viewBox="0 0 30 26" fill="none" xmlns="http://www.w3.org/2000/svg">
<path d="M16.185 0H29.9L28.5896 7.4841C31.1311 12.7907 29.8779 18.8656 25.675 22.6772C21.4656 26.4953 15.1866 27.1323 10.3285 24.0214L12.3929 21.892C16.4151 24.0812 21.2251 23.296 24.2983 19.994C27.2246 16.8493 27.8135 12.0562 25.6048 8.1471L26.2899 2.9315L16.237 2.9926C13.1716 3.0108 10.4143 4.784 8.5137 7.3801H16.172L13.2626 10.3428H4.1145C5.4236 4.6267 10.3857 0.0299 16.185 0Z" fill="#7D39EB"/>
<path d="M19.0905 15.0631L22.984 11.0071L25.1251 13.0806L18.6134 19.643L12.8752 13.9386L19.3284 7.36707L21.4357 9.37167L17.5266 13.2977L19.0905 15.0631Z" fill="#7D39EB"/>
<path d="M4.6631 26H0.6331L8.2277 18.187H0L4.2835 15.3218H11.4387L12.9506 17.6423L4.6631 26Z" fill="#7D39EB"/>
</svg>
